# xmcd
#
# Track frame offsets: 
#        150
#        26801
#        50399
#        70291
#        97048
#        127101
#        141250
#        172188
#        197557
#        224082
#        251420
#
# Disc length: 3486 seconds
#
# Revision: 0
# Processed by: cddbd v1.5.2PL0 Copyright (c) Steve Scherf et al.
# Submitted via: ExactAudioCopy v1.0b4
#
DISCID=b10d9c0b
DTITLE=Johnny Sansone - Lady On the Levee
DYEAR=2015
DGENRE=Blues
TTITLE0=Lady On The Levee
TTITLE1=Gertrude's Property Line
TTITLE2=OZ Radio
TTITLE3=Don't It Feel Good
TTITLE4=Unnecessary Pain
TTITLE5=Hey LaLa
TTITLE6=Lightning Bug Rhodes
TTITLE7=Tomato Wine
TTITLE8=One Of Us
TTITLE9=I'm Still Here
TTITLE10=Lady On The Levee Revisited
EXTD=
EXTT0=
EXTT1=
EXTT2=
EXTT3=
EXTT4=
EXTT5=
EXTT6=
EXTT7=
EXTT8=
EXTT9=
EXTT10=
PLAYORDER=
